<svg width="4309" height="702" viewBox="0 0 4309 702" fill="none" xmlns="http://www.w3.org/2000/svg">
<mask id="path-1-outside-1_55_22" maskUnits="userSpaceOnUse" x="0" y="0" width="4309" height="702" fill="black">
<rect fill="white" width="4309" height="702"/>
<path d="M837 254V0.999952H966V701H837V382H130V700H1V0.999952H130V254H837ZM1585.94 0.999952H1741.94L2241.94 701H2083.94L1984.94 562H1341.94L1242.94 701H1086.94L1585.94 0.999952ZM1433.94 433H1891.94L1662.94 112L1433.94 433ZM2811.16 572H2810.16C2949.16 572 3078.16 538 3163.16 479L3237.16 584C3130.16 658 2975.16 701 2811.16 701C2493.16 701 2244.16 547 2244.16 351C2244.16 155 2493.16 0.999952 2811.16 0.999952C2975.16 0.999952 3130.16 42.9999 3236.16 117L3162.16 223C3077.16 164 2949.16 130 2811.16 130C2604.16 130 2373.16 221 2373.16 351C2373.16 481 2604.16 572 2811.16 572ZM4295.2 0.999952L3814.2 308L4305.2 701H4099.2L3700.2 382L3454.2 540V701H3325.2V0.999952H3454.2V387L4056.2 0.999952H4295.2Z"/>
</mask>
<path d="M837 254V0.999952H966V701H837V382H130V700H1V0.999952H130V254H837ZM1585.94 0.999952H1741.94L2241.94 701H2083.94L1984.94 562H1341.94L1242.94 701H1086.94L1585.94 0.999952ZM1433.94 433H1891.94L1662.94 112L1433.94 433ZM2811.16 572H2810.16C2949.16 572 3078.16 538 3163.16 479L3237.16 584C3130.16 658 2975.16 701 2811.16 701C2493.16 701 2244.16 547 2244.16 351C2244.16 155 2493.16 0.999952 2811.16 0.999952C2975.16 0.999952 3130.16 42.9999 3236.16 117L3162.16 223C3077.16 164 2949.16 130 2811.16 130C2604.16 130 2373.16 221 2373.16 351C2373.16 481 2604.16 572 2811.16 572ZM4295.2 0.999952L3814.2 308L4305.2 701H4099.2L3700.2 382L3454.2 540V701H3325.2V0.999952H3454.2V387L4056.2 0.999952H4295.2Z" fill="#911876"/>
<path d="M837 254V255H838V254H837ZM837 0.999939V-6.10352e-05H836V0.999939H837ZM966 0.999939H967V-6.10352e-05H966V0.999939ZM966 701V702H967V701H966ZM837 701H836V702H837V701ZM837 382H838V381H837V382ZM130 382V381H129V382H130ZM130 700V701H131V700H130ZM1 700H3.8147e-06V701H1V700ZM1 0.999939V-6.10352e-05H3.8147e-06V0.999939H1ZM130 0.999939H131V-6.10352e-05H130V0.999939ZM130 254H129V255H130V254ZM837 254H838V0.999939H837H836V254H837ZM837 0.999939V1.99994H966V0.999939V-6.10352e-05H837V0.999939ZM966 0.999939H965V701H966H967V0.999939H966ZM966 701V700H837V701V702H966V701ZM837 701H838V382H837H836V701H837ZM837 382V381H130V382V383H837V382ZM130 382H129V700H130H131V382H130ZM130 700V699H1V700V701H130V700ZM1 700H2V0.999939H1H3.8147e-06V700H1ZM1 0.999939V1.99994H130V0.999939V-6.10352e-05H1V0.999939ZM130 0.999939H129V254H130H131V0.999939H130ZM130 254V255H837V254V253H130V254ZM1585.94 0.999939V-6.10352e-05H1585.42L1585.12 0.419495L1585.94 0.999939ZM1741.94 0.999939L1742.75 0.418701L1742.45 -6.10352e-05H1741.94V0.999939ZM2241.94 701V702H2243.88L2242.75 700.419L2241.94 701ZM2083.94 701L2083.12 701.58L2083.42 702H2083.94V701ZM1984.94 562L1985.75 561.42L1985.45 561H1984.94V562ZM1341.94 562V561H1341.42L1341.12 561.42L1341.94 562ZM1242.94 701V702H1243.45L1243.75 701.58L1242.94 701ZM1086.94 701L1086.12 700.42L1085 702H1086.94V701ZM1433.94 433L1433.12 432.419L1432 434H1433.94V433ZM1891.94 433V434H1893.88L1892.75 432.419L1891.94 433ZM1662.94 112L1663.75 111.419L1662.94 110.278L1662.12 111.419L1662.94 112ZM1585.94 0.999939V1.99994H1741.94V0.999939V-6.10352e-05H1585.94V0.999939ZM1741.94 0.999939L1741.12 1.58118L2241.12 701.581L2241.94 701L2242.75 700.419L1742.75 0.418701L1741.94 0.999939ZM2241.94 701V700H2083.94V701V702H2241.94V701ZM2083.94 701L2084.75 700.42L1985.75 561.42L1984.94 562L1984.12 562.58L2083.12 701.58L2083.94 701ZM1984.94 562V561H1341.94V562V563H1984.94V562ZM1341.94 562L1341.12 561.42L1242.12 700.42L1242.94 701L1243.75 701.58L1342.75 562.58L1341.94 562ZM1242.94 701V700H1086.94V701V702H1242.94V701ZM1086.94 701L1087.75 701.58L1586.75 1.58044L1585.94 0.999939L1585.12 0.419495L1086.12 700.42L1086.94 701ZM1433.94 433V434H1891.94V433V432H1433.94V433ZM1891.94 433L1892.75 432.419L1663.75 111.419L1662.94 112L1662.12 112.581L1891.12 433.581L1891.94 433ZM1662.94 112L1662.12 111.419L1433.12 432.419L1433.94 433L1434.75 433.581L1663.75 112.581L1662.94 112ZM3163.16 479L3163.98 478.424L3163.41 477.612L3162.59 478.178L3163.16 479ZM3237.16 584L3237.73 584.822L3238.56 584.249L3237.98 583.424L3237.16 584ZM3236.16 117L3236.98 117.572L3237.56 116.752L3236.74 116.18L3236.16 117ZM3162.16 223L3161.59 223.821L3162.41 224.39L3162.98 223.572L3162.16 223ZM2811.16 572V571H2810.16V572V573H2811.16V572ZM2810.16 572V573C2949.3 573 3078.52 538.971 3163.73 479.821L3163.16 479L3162.59 478.178C3077.81 537.029 2949.03 571 2810.16 571V572ZM3163.16 479L3162.35 479.576L3236.35 584.576L3237.16 584L3237.98 583.424L3163.98 478.424L3163.16 479ZM3237.16 584L3236.6 583.178C3129.8 657.036 2975.01 700 2811.16 700V701V702C2975.32 702 3130.53 658.964 3237.73 584.822L3237.16 584ZM2811.16 701V700C2652.31 700 2510.75 661.534 2408.94 598.649C2307.12 535.759 2245.16 448.534 2245.16 351H2244.16H2243.16C2243.16 449.466 2305.71 537.241 2407.89 600.351C2510.07 663.466 2652.01 702 2811.16 702V701ZM2244.16 351H2245.16C2245.16 253.466 2307.12 166.241 2408.94 103.351C2510.75 40.4657 2652.31 1.99994 2811.16 1.99994V0.999939V-6.10352e-05C2652.01 -6.10352e-05 2510.07 38.5342 2407.89 101.649C2305.71 164.759 2243.16 252.534 2243.16 351H2244.16ZM2811.16 0.999939V1.99994C2975.02 1.99994 3129.8 43.9662 3235.59 117.82L3236.16 117L3236.74 116.18C3130.53 42.0337 2975.31 -6.10352e-05 2811.16 -6.10352e-05V0.999939ZM3236.16 117L3235.34 116.428L3161.34 222.428L3162.16 223L3162.98 223.572L3236.98 117.572L3236.16 117ZM3162.16 223L3162.73 222.178C3077.52 163.03 2949.3 129 2811.16 129V130V131C2949.03 131 3076.81 164.97 3161.59 223.821L3162.16 223ZM2811.16 130V129C2707.54 129 2597.89 151.775 2514.12 190.844C2430.43 229.87 2372.16 285.367 2372.16 351H2373.16H2374.16C2374.16 286.633 2431.39 231.629 2514.96 192.656C2598.44 153.725 2707.79 131 2811.16 131V130ZM2373.16 351H2372.16C2372.16 416.633 2430.43 472.129 2514.12 511.156C2597.89 550.225 2707.54 573 2811.16 573V572V571C2707.79 571 2598.44 548.275 2514.96 509.344C2431.39 470.37 2374.16 415.367 2374.16 351H2373.16ZM4295.2 0.999939L4295.73 1.8429L4298.62 -6.10352e-05H4295.2V0.999939ZM3814.2 308L3813.66 307.157L3812.48 307.908L3813.57 308.781L3814.2 308ZM4305.2 701V702H4308.04L4305.82 700.219L4305.2 701ZM4099.2 701L4098.57 701.781L4098.84 702H4099.2V701ZM3700.2 382L3700.82 381.219L3700.26 380.771L3699.65 381.159L3700.2 382ZM3454.2 540L3453.65 539.159L3453.2 539.454V540H3454.2ZM3454.2 701V702H3455.2V701H3454.2ZM3325.2 701H3324.2V702H3325.2V701ZM3325.2 0.999939V-6.10352e-05H3324.2V0.999939H3325.2ZM3454.2 0.999939H3455.2V-6.10352e-05H3454.2V0.999939ZM3454.2 387H3453.2V388.829L3454.74 387.842L3454.2 387ZM4056.2 0.999939V-6.10352e-05H4055.9L4055.66 0.158142L4056.2 0.999939ZM4295.2 0.999939L4294.66 0.157043L3813.66 307.157L3814.2 308L3814.73 308.843L4295.73 1.8429L4295.2 0.999939ZM3814.2 308L3813.57 308.781L4304.57 701.781L4305.2 701L4305.82 700.219L3814.82 307.219L3814.2 308ZM4305.2 701V700H4099.2V701V702H4305.2V701ZM4099.2 701L4099.82 700.219L3700.82 381.219L3700.2 382L3699.57 382.781L4098.57 701.781L4099.2 701ZM3700.2 382L3699.65 381.159L3453.65 539.159L3454.2 540L3454.74 540.841L3700.74 382.841L3700.2 382ZM3454.2 540H3453.2V701H3454.2H3455.2V540H3454.2ZM3454.2 701V700H3325.2V701V702H3454.2V701ZM3325.2 701H3326.2V0.999939H3325.2H3324.2V701H3325.2ZM3325.2 0.999939V1.99994H3454.2V0.999939V-6.10352e-05H3325.2V0.999939ZM3454.2 0.999939H3453.2V387H3454.2H3455.2V0.999939H3454.2ZM3454.2 387L3454.74 387.842L4056.74 1.84174L4056.2 0.999939L4055.66 0.158142L3453.66 386.158L3454.2 387ZM4056.2 0.999939V1.99994H4295.2V0.999939V-6.10352e-05H4056.2V0.999939Z" fill="black" mask="url(#path-1-outside-1_55_22)"/>
</svg>
