<svg width="3130" height="701" viewBox="0 0 3130 701" fill="none" xmlns="http://www.w3.org/2000/svg">
<path d="M836 253V-4.76837e-05H965V700H836V381H129V699H2.38419e-06V-4.76837e-05H129V253H836ZM1085.94 700V0.999939H2044.94V130H1214.94V249H1841.94V378H1214.94V571H2044.94V700H1085.94ZM3108.41 219H3109.41C3109.41 383 2987.41 436 2815.41 453L3129.41 701H2921.41L2616.41 460H2279.41V701H2150.41V0.999939H2646.41C2796.41 0.999939 3108.41 0.999939 3108.41 219ZM2604.41 331C2961.41 331 2952.41 272 2952.41 220C2952.41 130 2725.41 130 2636.41 130H2279.41V331H2604.41Z" fill="#911876"/>
</svg>
