<svg width="12787" height="3321" viewBox="0 0 12787 3321" fill="none" xmlns="http://www.w3.org/2000/svg">
<g filter="url(#filter0_dd_1114494_66)">
<path d="M-32 1228.48L1116.91 1178.54L5431.13 1695.32L5879.77 1749.06L9062.81 1490.67L10962.4 1436.93H10886.2L9968.67 1609.01L12786.6 1968.91V2491.66L12079.7 2792.93L12687.4 3061.64H10112.5L10886.2 3288L3824.45 3190.83H962.493H-32L554.71 2924.11L-32 2717.48V2028.62L3570.25 1695.32L-32 1228.48Z" fill="url(#paint0_linear_1114494_66)" fill-opacity="0.94"/>
<path d="M5879.77 1749.06L9062.81 1490.67L10962.4 1436.93L9717.99 1089L5431.13 1695.32L5879.77 1749.06Z" fill="url(#paint1_linear_1114494_66)"/>
<path d="M-32 2028.62L3570.25 1695.32L-32 1228.48V2028.62Z" fill="url(#paint2_linear_1114494_66)"/>
<path d="M-32 3190.83L554.71 2924.11L-32 2717.48V3190.83Z" fill="url(#paint3_linear_1114494_66)"/>
</g>
<path d="M12787 2439V3320.5H11872.5L10858.2 3284.5L9825.88 3007.5L11269.4 3030L12546.7 3050L11813.9 2769L12787 2439Z" fill="url(#paint4_linear_1114494_66)"/>
<path d="M12790.7 1970V585L9621.59 1101.54L10469.1 1337.47L10882.2 1420.09L9380 1623.5L12790.7 1970Z" fill="url(#paint5_linear_1114494_66)"/>
<path d="M12790.7 1970V585L9621.59 1101.54L10469.1 1337.47L10882.2 1420.09L9380 1623.5L12790.7 1970Z" fill="url(#paint6_linear_1114494_66)" fill-opacity="0.08"/>
<path d="M0.0644531 1237.71V0L443.258 200.305L905.783 390.17L1157.1 495.216L537.986 878.862L262.017 1052.42L132.491 1152.89L47.4286 1182.91L0.0644531 1237.71Z" fill="url(#paint7_linear_1114494_66)"/>
<path d="M47.4286 1182.91L0.0644531 1237.71L478.58 1299L122.825 1227.28L69.1775 1210.96L132.491 1152.89L47.4286 1182.91Z" fill="url(#paint8_linear_1114494_66)"/>
<path d="M598.118 2892L0.0644531 3178V2519L598.118 2892Z" fill="url(#paint9_linear_1114494_66)"/>
<defs>
<filter id="filter0_dd_1114494_66" x="-36" y="1086" width="12826.6" height="2207" filterUnits="userSpaceOnUse" color-interpolation-filters="sRGB">
<feFlood flood-opacity="0" result="BackgroundImageFix"/>
<feColorMatrix in="SourceAlpha" type="matrix" values="0 0 0 0 0 0 0 0 0 0 0 0 0 0 0 0 0 0 127 0" result="hardAlpha"/>
<feMorphology radius="1" operator="dilate" in="SourceAlpha" result="effect1_dropShadow_1114494_66"/>
<feOffset dy="1"/>
<feGaussianBlur stdDeviation="1.5"/>
<feColorMatrix type="matrix" values="0 0 0 0 0 0 0 0 0 0 0 0 0 0 0 0 0 0 0.15 0"/>
<feBlend mode="normal" in2="BackgroundImageFix" result="effect1_dropShadow_1114494_66"/>
<feColorMatrix in="SourceAlpha" type="matrix" values="0 0 0 0 0 0 0 0 0 0 0 0 0 0 0 0 0 0 127 0" result="hardAlpha"/>
<feOffset dy="1"/>
<feGaussianBlur stdDeviation="1"/>
<feColorMatrix type="matrix" values="0 0 0 0 0 0 0 0 0 0 0 0 0 0 0 0 0 0 0.3 0"/>
<feBlend mode="normal" in2="effect1_dropShadow_1114494_66" result="effect2_dropShadow_1114494_66"/>
<feBlend mode="normal" in="SourceGraphic" in2="effect2_dropShadow_1114494_66" result="shape"/>
</filter>
<linearGradient id="paint0_linear_1114494_66" x1="-32" y1="2188.5" x2="12786.6" y2="2188.5" gradientUnits="userSpaceOnUse">
<stop stop-color="#CD366E"/>
<stop offset="0.201923" stop-color="#FF5795" stop-opacity="0.97"/>
<stop offset="0.202023" stop-color="#FF5795" stop-opacity="0.9625"/>
<stop offset="0.875" stop-color="#FF5795" stop-opacity="0.955"/>
<stop offset="1" stop-color="#CD366E" stop-opacity="0.94"/>
</linearGradient>
<linearGradient id="paint1_linear_1114494_66" x1="-32" y1="2188.5" x2="12786.6" y2="2188.5" gradientUnits="userSpaceOnUse">
<stop offset="0.706731" stop-color="#F61B65"/>
<stop offset="0.894231" stop-color="#981944"/>
</linearGradient>
<linearGradient id="paint2_linear_1114494_66" x1="-32" y1="2188.5" x2="12786.6" y2="2188.5" gradientUnits="userSpaceOnUse">
<stop stop-color="#411037"/>
<stop offset="0.1875" stop-color="#A72A8E"/>
</linearGradient>
<linearGradient id="paint3_linear_1114494_66" x1="-32" y1="2188.5" x2="12786.6" y2="2188.5" gradientUnits="userSpaceOnUse">
<stop offset="0.302885" stop-color="#A72A8E"/>
<stop offset="0.451923" stop-color="#411037"/>
</linearGradient>
<linearGradient id="paint4_linear_1114494_66" x1="11367.9" y1="2441.38" x2="11367.9" y2="3418" gradientUnits="userSpaceOnUse">
<stop offset="0.0769231" stop-color="#A72A8E"/>
<stop offset="1" stop-color="#411037"/>
</linearGradient>
<linearGradient id="paint5_linear_1114494_66" x1="11085.4" y1="585" x2="11085.4" y2="1933" gradientUnits="userSpaceOnUse">
<stop offset="0.283654" stop-color="#A72A8E"/>
<stop offset="1" stop-color="#411037"/>
</linearGradient>
<linearGradient id="paint6_linear_1114494_66" x1="11085.4" y1="585" x2="11085.4" y2="1933" gradientUnits="userSpaceOnUse">
<stop stop-opacity="0"/>
<stop offset="0.274038"/>
</linearGradient>
<linearGradient id="paint7_linear_1114494_66" x1="578.584" y1="0" x2="578.584" y2="1299" gradientUnits="userSpaceOnUse">
<stop offset="0.0673077" stop-color="#A72A8E"/>
<stop offset="1" stop-color="#411037"/>
</linearGradient>
<linearGradient id="paint8_linear_1114494_66" x1="578.584" y1="0" x2="578.584" y2="1299" gradientUnits="userSpaceOnUse">
<stop offset="0.0673077" stop-color="#A72A8E"/>
<stop offset="1" stop-color="#411037"/>
</linearGradient>
<linearGradient id="paint9_linear_1114494_66" x1="295.084" y1="2519" x2="295.084" y2="3178" gradientUnits="userSpaceOnUse">
<stop offset="0.0240385" stop-color="#A72A8E"/>
<stop offset="1" stop-color="#411037"/>
</linearGradient>
</defs>
</svg>
