<svg xmlns="http://www.w3.org/2000/svg" xmlns:xlink="http://www.w3.org/1999/xlink" width="253" zoomAndPan="magnify" viewBox="0 0 189.75 190.499994" height="254" preserveAspectRatio="xMidYMid meet" version="1.0"><defs><g/><clipPath id="4d49078191"><rect x="0" width="164" y="0" height="70"/></clipPath><clipPath id="e6440f0aa5"><rect x="0" width="43" y="0" height="130"/></clipPath></defs><g transform="matrix(1, 0, 0, 1, 12, 74)"><g clip-path="url(#4d49078191)"><g fill="#000000" fill-opacity="1"><g transform="translate(1.325422, 48.753337)"><g><path d="M 48.171875 -24.03125 L 48.171875 -37.640625 L 55.109375 -37.640625 L 55.109375 0 L 48.171875 0 L 48.171875 -17.15625 L 10.15625 -17.15625 L 10.15625 -0.046875 L 3.21875 -0.046875 L 3.21875 -37.640625 L 10.15625 -37.640625 L 10.15625 -24.03125 Z M 48.171875 -24.03125 "/></g></g></g><g fill="#000000" fill-opacity="1"><g transform="translate(59.716446, 48.753337)"><g/></g></g><g fill="#000000" fill-opacity="1"><g transform="translate(74.823405, 48.753337)"><g/></g></g><g fill="#000000" fill-opacity="1"><g transform="translate(89.930364, 48.753337)"><g/></g></g><g fill="#000000" fill-opacity="1"><g transform="translate(105.040372, 48.753337)"><g><path d="M 48.171875 -24.03125 L 48.171875 -37.640625 L 55.109375 -37.640625 L 55.109375 0 L 48.171875 0 L 48.171875 -17.15625 L 10.15625 -17.15625 L 10.15625 -0.046875 L 3.21875 -0.046875 L 3.21875 -37.640625 L 10.15625 -37.640625 L 10.15625 -24.03125 Z M 48.171875 -24.03125 "/></g></g></g></g></g><g transform="matrix(1, 0, 0, 1, 74, 30)"><g clip-path="url(#e6440f0aa5)"><g fill="#000000" fill-opacity="1"><g transform="translate(0.227443, 105.447311)"><g><path d="M 21.859375 0 L 21.859375 -26.265625 L 3.21875 -26.265625 L 3.21875 -32.046875 L 17.90625 -85.75 L 28.625 -85.75 L 28.625 -32.578125 L 36.125 -32.578125 L 36.125 -26.265625 L 28.625 -26.265625 L 28.625 0 Z M 10.1875 -32.578125 L 21.859375 -32.578125 L 22.609375 -55.84375 L 23.46875 -79.3125 L 21.4375 -79.3125 L 15.96875 -55.84375 Z M 10.1875 -32.578125 "/></g></g></g></g></g></svg>