<svg xmlns="http://www.w3.org/2000/svg" xmlns:xlink="http://www.w3.org/1999/xlink" width="317" zoomAndPan="magnify" viewBox="0 0 237.75 79.499998" height="106" preserveAspectRatio="xMidYMid meet" version="1.0"><defs><g/><clipPath id="85788a22a3"><path d="M 0.367188 13 L 194.746094 13 L 194.746094 42 L 0.367188 42 Z M 0.367188 13 " clip-rule="nonzero"/></clipPath><clipPath id="c271168149"><rect x="0" width="195" y="0" height="29"/></clipPath><clipPath id="bdd5dc3cf8"><path d="M 103 0.640625 L 121 0.640625 L 121 54.304688 L 103 54.304688 Z M 103 0.640625 " clip-rule="nonzero"/></clipPath><clipPath id="f2b0f70ca9"><rect x="0" width="18" y="0" height="55"/></clipPath><clipPath id="b73b4cb5a9"><rect x="0" width="195" y="0" height="55"/></clipPath></defs><g transform="matrix(1, 0, 0, 1, 21, 12)"><g clip-path="url(#b73b4cb5a9)"><g clip-path="url(#85788a22a3)"><g transform="matrix(1, 0, 0, 1, 0.000000000000003553, 13)"><g clip-path="url(#c271168149)"><g fill="#911876" fill-opacity="1"><g transform="translate(0.56363, 19.948341)"><g><path d="M 20.015625 -9.984375 L 20.015625 -15.640625 L 22.90625 -15.640625 L 22.90625 0 L 20.015625 0 L 20.015625 -7.125 L 4.21875 -7.125 L 4.21875 -0.015625 L 1.34375 -0.015625 L 1.34375 -15.640625 L 4.21875 -15.640625 L 4.21875 -9.984375 Z M 20.015625 -9.984375 "/></g></g></g><g fill="#911876" fill-opacity="1"><g transform="translate(24.821962, 19.948341)"><g><path d="M 12.484375 -15.640625 L 15.96875 -15.640625 L 27.140625 0 L 23.625 0 L 21.40625 -3.109375 L 7.03125 -3.109375 L 4.828125 0 L 1.34375 0 Z M 9.09375 -5.984375 L 19.34375 -5.984375 L 14.234375 -13.140625 Z M 9.09375 -5.984375 "/></g></g></g><g fill="#911876" fill-opacity="1"><g transform="translate(53.324389, 19.948341)"><g><path d="M 14.015625 -2.875 C 15.554688 -2.875 17.015625 -3.054688 18.390625 -3.421875 C 19.773438 -3.796875 20.941406 -4.304688 21.890625 -4.953125 L 23.53125 -2.609375 C 22.332031 -1.773438 20.898438 -1.128906 19.234375 -0.671875 C 17.578125 -0.222656 15.835938 0 14.015625 0 C 12.234375 0 10.578125 -0.195312 9.046875 -0.59375 C 7.515625 -1 6.171875 -1.554688 5.015625 -2.265625 C 3.859375 -2.972656 2.957031 -3.800781 2.3125 -4.75 C 1.664062 -5.695312 1.34375 -6.71875 1.34375 -7.8125 C 1.34375 -8.914062 1.664062 -9.941406 2.3125 -10.890625 C 2.957031 -11.835938 3.859375 -12.664062 5.015625 -13.375 C 6.171875 -14.082031 7.515625 -14.632812 9.046875 -15.03125 C 10.578125 -15.4375 12.234375 -15.640625 14.015625 -15.640625 C 15.835938 -15.640625 17.578125 -15.410156 19.234375 -14.953125 C 20.898438 -14.503906 22.332031 -13.867188 23.53125 -13.046875 L 21.875 -10.6875 C 20.914062 -11.351562 19.75 -11.863281 18.375 -12.21875 C 17.007812 -12.582031 15.554688 -12.765625 14.015625 -12.765625 C 12.847656 -12.765625 11.6875 -12.644531 10.53125 -12.40625 C 9.375 -12.164062 8.316406 -11.820312 7.359375 -11.375 C 6.410156 -10.9375 5.648438 -10.414062 5.078125 -9.8125 C 4.503906 -9.21875 4.21875 -8.550781 4.21875 -7.8125 C 4.21875 -7.082031 4.503906 -6.414062 5.078125 -5.8125 C 5.648438 -5.21875 6.410156 -4.695312 7.359375 -4.25 C 8.316406 -3.8125 9.375 -3.472656 10.53125 -3.234375 C 11.6875 -2.992188 12.847656 -2.875 14.015625 -2.875 Z M 14.015625 -2.875 "/></g></g></g><g fill="#911876" fill-opacity="1"><g transform="translate(78.208166, 19.948341)"><g><path d="M 22.984375 -15.640625 L 12.28125 -8.78125 L 23.265625 0 L 18.640625 0 L 9.71875 -7.125 L 4.21875 -3.59375 L 4.21875 0 L 1.34375 0 L 1.34375 -15.640625 L 4.21875 -15.640625 L 4.21875 -7.015625 L 17.65625 -15.640625 Z M 22.984375 -15.640625 "/></g></g></g><g fill="#911876" fill-opacity="1"><g transform="translate(102.803046, 19.948341)"><g/></g></g><g fill="#911876" fill-opacity="1"><g transform="translate(109.079834, 19.948341)"><g/></g></g><g fill="#911876" fill-opacity="1"><g transform="translate(115.356621, 19.948341)"><g/></g></g><g fill="#911876" fill-opacity="1"><g transform="translate(121.634676, 19.948341)"><g><path d="M 20.015625 -9.984375 L 20.015625 -15.640625 L 22.90625 -15.640625 L 22.90625 0 L 20.015625 0 L 20.015625 -7.125 L 4.21875 -7.125 L 4.21875 -0.015625 L 1.34375 -0.015625 L 1.34375 -15.640625 L 4.21875 -15.640625 L 4.21875 -9.984375 Z M 20.015625 -9.984375 "/></g></g></g><g fill="#911876" fill-opacity="1"><g transform="translate(145.893009, 19.948341)"><g><path d="M 1.34375 0 L 1.34375 -15.625 L 22.765625 -15.625 L 22.765625 -12.734375 L 4.21875 -12.734375 L 4.21875 -10.078125 L 18.234375 -10.078125 L 18.234375 -7.1875 L 4.21875 -7.1875 L 4.21875 -2.875 L 22.765625 -2.875 L 22.765625 0 Z M 1.34375 0 "/></g></g></g><g fill="#911876" fill-opacity="1"><g transform="translate(169.994977, 19.948341)"><g><path d="M 22.765625 -10.75 C 22.765625 -9.539062 22.476562 -8.578125 21.90625 -7.859375 C 21.34375 -7.148438 20.570312 -6.617188 19.59375 -6.265625 C 18.613281 -5.921875 17.484375 -5.679688 16.203125 -5.546875 L 23.21875 0 L 18.546875 0 L 11.734375 -5.390625 L 4.21875 -5.390625 L 4.21875 0 L 1.34375 0 L 1.34375 -15.640625 L 12.421875 -15.640625 C 12.972656 -15.640625 13.609375 -15.628906 14.328125 -15.609375 C 15.054688 -15.585938 15.804688 -15.535156 16.578125 -15.453125 C 17.347656 -15.367188 18.101562 -15.222656 18.84375 -15.015625 C 19.582031 -14.816406 20.242188 -14.539062 20.828125 -14.1875 C 21.421875 -13.832031 21.890625 -13.375 22.234375 -12.8125 C 22.585938 -12.25 22.765625 -11.5625 22.765625 -10.75 Z M 11.484375 -8.265625 C 13.078125 -8.265625 14.367188 -8.3125 15.359375 -8.40625 C 16.347656 -8.507812 17.113281 -8.640625 17.65625 -8.796875 C 18.207031 -8.960938 18.585938 -9.15625 18.796875 -9.375 C 19.015625 -9.59375 19.140625 -9.816406 19.171875 -10.046875 C 19.210938 -10.285156 19.234375 -10.519531 19.234375 -10.75 C 19.234375 -11.144531 19.054688 -11.46875 18.703125 -11.71875 C 18.359375 -11.976562 17.898438 -12.175781 17.328125 -12.3125 C 16.765625 -12.457031 16.160156 -12.5625 15.515625 -12.625 C 14.878906 -12.6875 14.265625 -12.722656 13.671875 -12.734375 C 13.085938 -12.753906 12.597656 -12.765625 12.203125 -12.765625 L 4.21875 -12.765625 L 4.21875 -8.265625 Z M 11.484375 -8.265625 "/></g></g></g></g></g></g><g clip-path="url(#bdd5dc3cf8)"><g transform="matrix(1, 0, 0, 1, 103, 0.000000000000001776)"><g clip-path="url(#f2b0f70ca9)"><g fill="#921976" fill-opacity="1"><g transform="translate(0.204586, 44.276983)"><g><path d="M 9.078125 0 L 9.078125 -10.90625 L 1.34375 -10.90625 L 1.34375 -13.3125 L 7.4375 -35.625 L 11.890625 -35.625 L 11.890625 -13.53125 L 15 -13.53125 L 15 -10.90625 L 11.890625 -10.90625 L 11.890625 0 Z M 4.234375 -13.53125 L 9.078125 -13.53125 L 9.390625 -23.203125 L 9.75 -32.953125 L 8.90625 -32.953125 L 6.640625 -23.203125 Z M 4.234375 -13.53125 "/></g></g></g></g></g></g></g></g></svg>