<svg xmlns="http://www.w3.org/2000/svg" xmlns:xlink="http://www.w3.org/1999/xlink" width="335" zoomAndPan="magnify" viewBox="0 0 251.25 83.999999" height="112" preserveAspectRatio="xMidYMid meet" version="1.0"><defs><g/><clipPath id="6b142a2fdc"><path d="M 0.015625 13 L 206.039062 13 L 206.039062 45 L 0.015625 45 Z M 0.015625 13 " clip-rule="nonzero"/></clipPath><clipPath id="1caea45a4f"><rect x="0" width="207" y="0" height="32"/></clipPath><clipPath id="8f32e012ec"><path d="M 108 0.523438 L 128 0.523438 L 128 57.234375 L 108 57.234375 Z M 108 0.523438 " clip-rule="nonzero"/></clipPath><clipPath id="2c375c8ed0"><rect x="0" width="20" y="0" height="58"/></clipPath><clipPath id="f29cb8c163"><rect x="0" width="207" y="0" height="58"/></clipPath></defs><g transform="matrix(1, 0, 0, 1, 22, 13)"><g clip-path="url(#f29cb8c163)"><g clip-path="url(#6b142a2fdc)"><g transform="matrix(1, 0, 0, 1, 0, 13)"><g clip-path="url(#1caea45a4f)"><g fill="#ff2871" fill-opacity="1"><g transform="translate(0.211683, 21.79195)"><g><path d="M 21.21875 -10.59375 L 21.21875 -16.578125 L 24.28125 -16.578125 L 24.28125 0 L 21.21875 0 L 21.21875 -7.5625 L 4.484375 -7.5625 L 4.484375 -0.03125 L 1.421875 -0.03125 L 1.421875 -16.578125 L 4.484375 -16.578125 L 4.484375 -10.59375 Z M 21.21875 -10.59375 "/></g></g></g><g fill="#ff2871" fill-opacity="1"><g transform="translate(25.937229, 21.79195)"><g><path d="M 13.234375 -16.578125 L 16.9375 -16.578125 L 28.78125 0 L 25.03125 0 L 22.6875 -3.296875 L 7.46875 -3.296875 L 5.109375 0 L 1.421875 0 Z M 9.640625 -6.34375 L 20.515625 -6.34375 L 15.09375 -13.921875 Z M 9.640625 -6.34375 "/></g></g></g><g fill="#ff2871" fill-opacity="1"><g transform="translate(56.163564, 21.79195)"><g><path d="M 14.859375 -3.0625 C 16.492188 -3.0625 18.039062 -3.253906 19.5 -3.640625 C 20.96875 -4.023438 22.207031 -4.566406 23.21875 -5.265625 L 24.9375 -2.765625 C 23.675781 -1.878906 22.164062 -1.195312 20.40625 -0.71875 C 18.644531 -0.238281 16.796875 0 14.859375 0 C 12.972656 0 11.21875 -0.210938 9.59375 -0.640625 C 7.96875 -1.066406 6.539062 -1.65625 5.3125 -2.40625 C 4.09375 -3.15625 3.140625 -4.03125 2.453125 -5.03125 C 1.765625 -6.03125 1.421875 -7.117188 1.421875 -8.296875 C 1.421875 -9.460938 1.765625 -10.546875 2.453125 -11.546875 C 3.140625 -12.546875 4.09375 -13.421875 5.3125 -14.171875 C 6.539062 -14.921875 7.96875 -15.507812 9.59375 -15.9375 C 11.21875 -16.363281 12.972656 -16.578125 14.859375 -16.578125 C 16.796875 -16.578125 18.644531 -16.335938 20.40625 -15.859375 C 22.164062 -15.378906 23.675781 -14.703125 24.9375 -13.828125 L 23.1875 -11.328125 C 22.175781 -12.035156 20.941406 -12.578125 19.484375 -12.953125 C 18.035156 -13.335938 16.492188 -13.53125 14.859375 -13.53125 C 13.617188 -13.53125 12.382812 -13.398438 11.15625 -13.140625 C 9.9375 -12.890625 8.820312 -12.53125 7.8125 -12.0625 C 6.800781 -11.601562 5.992188 -11.050781 5.390625 -10.40625 C 4.785156 -9.769531 4.484375 -9.066406 4.484375 -8.296875 C 4.484375 -7.515625 4.785156 -6.804688 5.390625 -6.171875 C 5.992188 -5.535156 6.800781 -4.984375 7.8125 -4.515625 C 8.820312 -4.046875 9.9375 -3.6875 11.15625 -3.4375 C 12.382812 -3.1875 13.617188 -3.0625 14.859375 -3.0625 Z M 14.859375 -3.0625 "/></g></g></g><g fill="#ff2871" fill-opacity="1"><g transform="translate(82.552383, 21.79195)"><g><path d="M 24.375 -16.578125 L 13.03125 -9.3125 L 24.65625 0 L 19.75 0 L 10.296875 -7.5625 L 4.484375 -3.8125 L 4.484375 0 L 1.421875 0 L 1.421875 -16.578125 L 4.484375 -16.578125 L 4.484375 -7.4375 L 18.71875 -16.578125 Z M 24.375 -16.578125 "/></g></g></g><g fill="#ff2871" fill-opacity="1"><g transform="translate(108.634833, 21.79195)"><g/></g></g><g fill="#ff2871" fill-opacity="1"><g transform="translate(115.291258, 21.79195)"><g/></g></g><g fill="#ff2871" fill-opacity="1"><g transform="translate(121.947684, 21.79195)"><g/></g></g><g fill="#ff2871" fill-opacity="1"><g transform="translate(128.605453, 21.79195)"><g><path d="M 21.21875 -10.59375 L 21.21875 -16.578125 L 24.28125 -16.578125 L 24.28125 0 L 21.21875 0 L 21.21875 -7.5625 L 4.484375 -7.5625 L 4.484375 -0.03125 L 1.421875 -0.03125 L 1.421875 -16.578125 L 4.484375 -16.578125 L 4.484375 -10.59375 Z M 21.21875 -10.59375 "/></g></g></g><g fill="#ff2871" fill-opacity="1"><g transform="translate(154.331, 21.79195)"><g><path d="M 1.421875 0 L 1.421875 -16.5625 L 24.140625 -16.5625 L 24.140625 -13.5 L 4.484375 -13.5 L 4.484375 -10.6875 L 19.328125 -10.6875 L 19.328125 -7.625 L 4.484375 -7.625 L 4.484375 -3.0625 L 24.140625 -3.0625 L 24.140625 0 Z M 1.421875 0 "/></g></g></g><g fill="#ff2871" fill-opacity="1"><g transform="translate(179.890724, 21.79195)"><g><path d="M 24.140625 -11.390625 C 24.140625 -10.109375 23.835938 -9.085938 23.234375 -8.328125 C 22.640625 -7.578125 21.816406 -7.015625 20.765625 -6.640625 C 19.722656 -6.273438 18.523438 -6.019531 17.171875 -5.875 L 24.609375 0 L 19.65625 0 L 12.4375 -5.703125 L 4.484375 -5.703125 L 4.484375 0 L 1.421875 0 L 1.421875 -16.578125 L 13.171875 -16.578125 C 13.753906 -16.578125 14.425781 -16.566406 15.1875 -16.546875 C 15.957031 -16.523438 16.753906 -16.46875 17.578125 -16.375 C 18.398438 -16.289062 19.203125 -16.140625 19.984375 -15.921875 C 20.765625 -15.710938 21.46875 -15.414062 22.09375 -15.03125 C 22.71875 -14.65625 23.210938 -14.171875 23.578125 -13.578125 C 23.953125 -12.992188 24.140625 -12.265625 24.140625 -11.390625 Z M 12.171875 -8.765625 C 13.859375 -8.765625 15.226562 -8.816406 16.28125 -8.921875 C 17.332031 -9.023438 18.144531 -9.160156 18.71875 -9.328125 C 19.300781 -9.503906 19.707031 -9.707031 19.9375 -9.9375 C 20.164062 -10.164062 20.296875 -10.40625 20.328125 -10.65625 C 20.367188 -10.90625 20.390625 -11.148438 20.390625 -11.390625 C 20.390625 -11.816406 20.203125 -12.164062 19.828125 -12.4375 C 19.460938 -12.707031 18.976562 -12.914062 18.375 -13.0625 C 17.78125 -13.207031 17.140625 -13.3125 16.453125 -13.375 C 15.773438 -13.445312 15.125 -13.488281 14.5 -13.5 C 13.882812 -13.519531 13.363281 -13.53125 12.9375 -13.53125 L 4.484375 -13.53125 L 4.484375 -8.765625 Z M 12.171875 -8.765625 "/></g></g></g></g></g></g><g clip-path="url(#8f32e012ec)"><g transform="matrix(1, 0, 0, 1, 108, -0.000000000000007105)"><g clip-path="url(#2c375c8ed0)"><g fill="#911876" fill-opacity="1"><g transform="translate(1.060624, 46.805778)"><g><path d="M 9.640625 0 L 9.640625 -11.578125 L 1.421875 -11.578125 L 1.421875 -14.125 L 7.890625 -37.78125 L 12.609375 -37.78125 L 12.609375 -14.359375 L 15.921875 -14.359375 L 15.921875 -11.578125 L 12.609375 -11.578125 L 12.609375 0 Z M 4.484375 -14.359375 L 9.640625 -14.359375 L 9.96875 -24.609375 L 10.34375 -34.953125 L 9.453125 -34.953125 L 7.03125 -24.609375 Z M 4.484375 -14.359375 "/></g></g></g></g></g></g></g></g></svg>