<svg xmlns="http://www.w3.org/2000/svg" xmlns:xlink="http://www.w3.org/1999/xlink" width="330" zoomAndPan="magnify" viewBox="0 0 247.5 83.249999" height="111" preserveAspectRatio="xMidYMid meet" version="1.0"><defs><g/><clipPath id="9959ab4d5d"><path d="M 0.265625 12 L 202.441406 12 L 202.441406 43 L 0.265625 43 Z M 0.265625 12 " clip-rule="nonzero"/></clipPath><clipPath id="3c31145bda"><rect x="0" width="203" y="0" height="31"/></clipPath><clipPath id="12adfb5749"><path d="M 107 0.0820312 L 126 0.0820312 L 126 55.742188 L 107 55.742188 Z M 107 0.0820312 " clip-rule="nonzero"/></clipPath><clipPath id="9e10fcf232"><rect x="0" width="19" y="0" height="56"/></clipPath><clipPath id="0eab98591f"><rect x="0" width="203" y="0" height="56"/></clipPath></defs><g transform="matrix(1, 0, 0, 1, 22, 13)"><g clip-path="url(#0eab98591f)"><g clip-path="url(#9959ab4d5d)"><g transform="matrix(1, 0, 0, 1, -0.000000000000003553, 12)"><g clip-path="url(#3c31145bda)"><g fill="#ff2871" fill-opacity="1"><g transform="translate(0.63782, 21.741991)"><g><path d="M 20.8125 -10.390625 L 20.8125 -16.265625 L 23.8125 -16.265625 L 23.8125 0 L 20.8125 0 L 20.8125 -7.40625 L 4.390625 -7.40625 L 4.390625 -0.015625 L 1.390625 -0.015625 L 1.390625 -16.265625 L 4.390625 -16.265625 L 4.390625 -10.390625 Z M 20.8125 -10.390625 "/></g></g></g><g fill="#ff2871" fill-opacity="1"><g transform="translate(25.864175, 21.741991)"><g><path d="M 12.984375 -16.265625 L 16.609375 -16.265625 L 28.234375 0 L 24.5625 0 L 22.265625 -3.234375 L 7.3125 -3.234375 L 5.015625 0 L 1.390625 0 Z M 9.453125 -6.234375 L 20.125 -6.234375 L 14.796875 -13.65625 Z M 9.453125 -6.234375 "/></g></g></g><g fill="#ff2871" fill-opacity="1"><g transform="translate(55.503982, 21.741991)"><g><path d="M 14.5625 -3 C 16.175781 -3 17.695312 -3.1875 19.125 -3.5625 C 20.5625 -3.945312 21.773438 -4.476562 22.765625 -5.15625 L 24.46875 -2.71875 C 23.226562 -1.851562 21.742188 -1.179688 20.015625 -0.703125 C 18.285156 -0.234375 16.46875 0 14.5625 0 C 12.71875 0 11 -0.207031 9.40625 -0.625 C 7.8125 -1.039062 6.414062 -1.617188 5.21875 -2.359375 C 4.019531 -3.097656 3.082031 -3.957031 2.40625 -4.9375 C 1.726562 -5.914062 1.390625 -6.976562 1.390625 -8.125 C 1.390625 -9.269531 1.726562 -10.332031 2.40625 -11.3125 C 3.082031 -12.300781 4.019531 -13.164062 5.21875 -13.90625 C 6.414062 -14.644531 7.8125 -15.222656 9.40625 -15.640625 C 11 -16.054688 12.71875 -16.265625 14.5625 -16.265625 C 16.46875 -16.265625 18.285156 -16.023438 20.015625 -15.546875 C 21.742188 -15.078125 23.226562 -14.414062 24.46875 -13.5625 L 22.75 -11.109375 C 21.757812 -11.804688 20.550781 -12.335938 19.125 -12.703125 C 17.695312 -13.078125 16.175781 -13.265625 14.5625 -13.265625 C 13.351562 -13.265625 12.148438 -13.140625 10.953125 -12.890625 C 9.753906 -12.640625 8.660156 -12.285156 7.671875 -11.828125 C 6.679688 -11.378906 5.882812 -10.835938 5.28125 -10.203125 C 4.6875 -9.578125 4.390625 -8.882812 4.390625 -8.125 C 4.390625 -7.375 4.6875 -6.679688 5.28125 -6.046875 C 5.882812 -5.421875 6.679688 -4.878906 7.671875 -4.421875 C 8.660156 -3.960938 9.753906 -3.609375 10.953125 -3.359375 C 12.148438 -3.117188 13.351562 -3 14.5625 -3 Z M 14.5625 -3 "/></g></g></g><g fill="#ff2871" fill-opacity="1"><g transform="translate(81.380739, 21.741991)"><g><path d="M 23.90625 -16.265625 L 12.78125 -9.125 L 24.1875 0 L 19.375 0 L 10.109375 -7.40625 L 4.390625 -3.734375 L 4.390625 0 L 1.390625 0 L 1.390625 -16.265625 L 4.390625 -16.265625 L 4.390625 -7.296875 L 18.359375 -16.265625 Z M 23.90625 -16.265625 "/></g></g></g><g fill="#ff2871" fill-opacity="1"><g transform="translate(106.95707, 21.741991)"><g/></g></g><g fill="#ff2871" fill-opacity="1"><g transform="translate(113.484331, 21.741991)"><g/></g></g><g fill="#ff2871" fill-opacity="1"><g transform="translate(120.011592, 21.741991)"><g/></g></g><g fill="#ff2871" fill-opacity="1"><g transform="translate(126.540171, 21.741991)"><g><path d="M 20.8125 -10.390625 L 20.8125 -16.265625 L 23.8125 -16.265625 L 23.8125 0 L 20.8125 0 L 20.8125 -7.40625 L 4.390625 -7.40625 L 4.390625 -0.015625 L 1.390625 -0.015625 L 1.390625 -16.265625 L 4.390625 -16.265625 L 4.390625 -10.390625 Z M 20.8125 -10.390625 "/></g></g></g><g fill="#ff2871" fill-opacity="1"><g transform="translate(151.766525, 21.741991)"><g><path d="M 1.390625 0 L 1.390625 -16.234375 L 23.671875 -16.234375 L 23.671875 -13.25 L 4.390625 -13.25 L 4.390625 -10.484375 L 18.953125 -10.484375 L 18.953125 -7.484375 L 4.390625 -7.484375 L 4.390625 -3 L 23.671875 -3 L 23.671875 0 Z M 1.390625 0 "/></g></g></g><g fill="#ff2871" fill-opacity="1"><g transform="translate(176.830275, 21.741991)"><g><path d="M 23.671875 -11.171875 C 23.671875 -9.921875 23.375 -8.921875 22.78125 -8.171875 C 22.195312 -7.429688 21.394531 -6.878906 20.375 -6.515625 C 19.351562 -6.148438 18.175781 -5.898438 16.84375 -5.765625 L 24.140625 0 L 19.28125 0 L 12.203125 -5.59375 L 4.390625 -5.59375 L 4.390625 0 L 1.390625 0 L 1.390625 -16.265625 L 12.921875 -16.265625 C 13.492188 -16.265625 14.15625 -16.25 14.90625 -16.21875 C 15.65625 -16.195312 16.429688 -16.144531 17.234375 -16.0625 C 18.046875 -15.976562 18.832031 -15.832031 19.59375 -15.625 C 20.363281 -15.414062 21.050781 -15.125 21.65625 -14.75 C 22.269531 -14.382812 22.757812 -13.910156 23.125 -13.328125 C 23.488281 -12.742188 23.671875 -12.023438 23.671875 -11.171875 Z M 11.9375 -8.59375 C 13.59375 -8.59375 14.9375 -8.644531 15.96875 -8.75 C 17 -8.851562 17.796875 -8.988281 18.359375 -9.15625 C 18.929688 -9.320312 19.328125 -9.515625 19.546875 -9.734375 C 19.773438 -9.960938 19.90625 -10.203125 19.9375 -10.453125 C 19.976562 -10.703125 20 -10.941406 20 -11.171875 C 20 -11.585938 19.816406 -11.925781 19.453125 -12.1875 C 19.085938 -12.457031 18.609375 -12.664062 18.015625 -12.8125 C 17.429688 -12.957031 16.804688 -13.0625 16.140625 -13.125 C 15.484375 -13.1875 14.847656 -13.222656 14.234375 -13.234375 C 13.617188 -13.253906 13.101562 -13.265625 12.6875 -13.265625 L 4.390625 -13.265625 L 4.390625 -8.59375 Z M 11.9375 -8.59375 "/></g></g></g></g></g></g><g clip-path="url(#12adfb5749)"><g transform="matrix(1, 0, 0, 1, 107, 0)"><g clip-path="url(#9e10fcf232)"><g fill="#ff2871" fill-opacity="1"><g transform="translate(0.374615, 45.522689)"><g><path d="M 9.453125 0 L 9.453125 -11.34375 L 1.390625 -11.34375 L 1.390625 -13.84375 L 7.734375 -37.046875 L 12.359375 -37.046875 L 12.359375 -14.078125 L 15.609375 -14.078125 L 15.609375 -11.34375 L 12.359375 -11.34375 L 12.359375 0 Z M 4.40625 -14.078125 L 9.453125 -14.078125 L 9.765625 -24.125 L 10.140625 -34.265625 L 9.265625 -34.265625 L 6.90625 -24.125 Z M 4.40625 -14.078125 "/></g></g></g></g></g></g></g></g></svg>